<?xml version="1.0" encoding="utf-8"?>
<!-- Generator: Adobe Illustrator 28.0.0, SVG Export Plug-In . SVG Version: 6.00 Build 0)  -->
<svg version="1.1" id="Ebene_1" xmlns="http://www.w3.org/2000/svg" xmlns:xlink="http://www.w3.org/1999/xlink" x="0px" y="0px"
	 viewBox="0 0 841.89 595.28" style="enable-background:new 0 0 841.89 595.28;" xml:space="preserve">
<style type="text/css">
	.st0{fill:#914D98;}
	.st1{font-family:'Quicksand-SemiBold';}
	.st2{font-size:70px;}
	.st3{font-size:204.1553px;}
</style>
<g>
	<g>
		<path class="st0" d="M226.38,351.58c2.05-0.02,5.61-0.33,9.07-0.72c4.08-0.46,6.26-0.71,8.8-1.68c2-0.76,5.21-2.35,8.46-5.87
			c-0.38,1.79-1.19,4.58-3.11,7.51c-0.75,1.15-2.99,4.5-6.99,6.73c-4.3,2.4-8.6,2.15-10.31,2.15c-44.82-0.17-67.19-0.07-69.6-0.03
			c-0.69,0.01-2.9,0.07-4.14-1.36c-1.13-1.3-1.26-3.6-0.26-4.98c1.22-1.68,3.86-1.61,4.85-1.62c10.35-0.12,19.38-0.12,30.87-0.06"/>
		<path class="st0" d="M191.18,270.34c8.68-0.28,13.02-0.42,19.5-0.22c2.52,0.08,6.45,0.02,14.33-0.09
			c9.25-0.13,13.92-0.21,15.75-0.86c5.27-1.89,12.02-6.88,13.98-15.15c2.24-9.44-3.27-16.82-4.08-17.86
			c-3.59-4.64-8.15-6.47-11.41-7.72c-5.97-2.3-10.46-1.91-22.25-1.91c-20.16,0-24.81-0.35-34.4,1.14
			c-4.26,0.66-8.63,1.57-13.68,3.83c-4.81,2.16-8.38,4.73-10.68,6.6c2.12-0.53,5.29-1.07,9.13-1.75c4.09-0.72,12.62-0.48,14.81-0.48
			c8.25,0,26.34,0.09,49.31-0.09c0.89-0.01,7.02,0.05,11.22,5.04c0.22,0.26,5.19,6.37,2.72,12.82c-1.84,4.8-4.59,6.18-8.93,7.59
			c-3.82,1.24-6.87,1.06-7.73,1.07c-7.86,0.09-33.03,0.22-67.1,0c-3.09,0.12-8.91,0.71-13.71,5.12c-10.83,9.94-4.17,28.63-3.8,29.62
			c5.04,13.53,17.82,19.4,23.13,21.83c6.91,3.17,13.19,4.13,14.5,4.31c11.86,1.7,24.73-0.73,28.13,3.11
			c1.51,1.7,1.53,3.45,1.53,3.45c0,0.16,0,1.84-1.19,3.11c-1.45,1.56-3.79,1.55-4.75,1.55c-10.54,0.04-21.04-0.02-31.44,0.04
			c-13.35,0.07-19.77-0.53-25.51,3.85c-5.22,3.98-9.25,11.13-8.76,18.83c0.61,9.57,7.89,15.48,9.13,16.44
			c6.62,5.18,11,4.14,40.93,4.14c15.84,0,17.83,0.17,25.67-0.78c11.97-1.44,21.55-9.51,21.55-9.51s-4.79,0.37-14.17,1.17
			c-6.05,0.51-7.28,0.6-19.07,0.6c-4.07,0-4.54,0.02-35.76,0c-7.07,0-10.56-0.26-13.71-2.54c-7.13-5.17-7.48-12.29-4.27-17.86
			c1.79-3.11,4.98-4.66,6.15-5.22c3.55-1.72,6.84-1.74,8.2-1.73c3.81,0.03,48.68,0.58,65.72,0.09c3.16-0.09,8.26-0.3,13.16-3.54
			c7.95-5.25,9.56-12.13,9.67-15.53c0.29-8.83-3.15-15.58-6.24-20.7c-1.43-2.37-7.83-12.5-21.7-17.83
			c-8.01-3.08-15.97-3.3-21.25-3.5c-10.83-0.4-16.53,0.87-18.97-2.07c-1.37-1.65-1.81-4.59-0.49-6.21
			C185.94,270.55,188.74,270.42,191.18,270.34z M229.53,334.45c-2.82,0-5.63,0-8.45,0c0.09-2.13-0.03-6.33-2.32-10.63
			c-0.89-1.67-2.95-5.53-7.25-7.51c-2.43-1.12-4.59-1.18-6.04-1.21c-9.06-0.18-17.11-0.01-18.21,0
			c-11.94,0.16-21.17-6.43-23.04-7.77c-2.54-1.82-10.77-7.86-13.38-18.21c-0.75-2.96-1.74-7.17,0.43-11.39
			c1.95-3.79,5.4-5.56,6.9-6.21c-0.23,2.85-0.26,7.49,1.4,12.84c2.42,7.8,6.98,12.46,7.92,13.4c1.09,1.08,6.2,6.01,14.54,8.16
			c3.92,1.01,4.4,0.77,16.53,0.73c13.21-0.04,15.51,1.26,16.91,1.9c6.45,2.92,9.83,8.2,10.96,10.18
			C230.35,325.59,229.8,332.29,229.53,334.45z M183.56,288.63c2.57,0.74,5.43,1.04,6.89,1.06c9.18,0.08,17.29,0.1,18.39,0.08
			c11.94-0.16,20.99,6.35,22.86,7.68c2.54,1.82,10.77,7.86,13.38,18.21c0.75,2.96,1.74,7.17-0.43,11.39
			c-1.95,3.79-5.4,5.56-6.9,6.21c0.23-2.85,0.26-7.49-1.4-12.84c-2.42-7.8-6.98-12.46-7.92-13.4c-1.09-1.08-6.2-6.01-14.54-8.16
			c-3.92-1.01-4.54-0.57-16.52-0.67c-13.37-0.12-15.52-1.32-16.92-1.96c-6.45-2.92-9.83-8.2-10.96-10.18
			c-3.92-6.86-3.33-13.8-3.06-15.97c2.82,0,5.66,0,8.48,0c-0.09,2.13-0.75,6.65,0.63,10.96
			C176.67,284.64,178.76,287.25,183.56,288.63z"/>
	</g>
	<path class="st0" d="M169.01,252.91c-2.05,0.02-5.61,0.33-9.07,0.72c-4.08,0.46-6.26,0.71-8.8,1.68c-2,0.76-5.21,2.35-8.46,5.87
		c0.38-1.79,1.19-4.58,3.11-7.51c0.75-1.15,2.91-4.65,6.99-6.73c4.32-2.21,8.6-2.06,10.32-2.05c44.82,0.17,67.18-0.03,69.59-0.06
		c0.69-0.01,2.9-0.07,4.14,1.36c1.13,1.3,1.26,3.6,0.26,4.98c-1.22,1.68-3.86,1.61-4.85,1.62c-10.35,0.12-19.38,0.12-30.87,0.06"/>
</g>
<text transform="matrix(1 0 0 1 139.7526 428.3607)" class="st1 st2">security</text>
<text transform="matrix(1 0 0 1 437.197 428.3605)" class="st1 st2">systems</text>
<text transform="matrix(1 0 0 1 259.2705 377.7421)" class="st0 st1 st3">hield</text>
</svg>
