<?xml version="1.0" encoding="utf-8"?>
<!-- Generator: Adobe Illustrator 28.0.0, SVG Export Plug-In . SVG Version: 6.00 Build 0)  -->
<svg version="1.1" id="Ebene_1" xmlns="http://www.w3.org/2000/svg" xmlns:xlink="http://www.w3.org/1999/xlink" x="0px" y="0px"
	 viewBox="0 0 841.9 595.3" style="enable-background:new 0 0 841.9 595.3;" xml:space="preserve">
<style type="text/css">
	.st0{fill:#2B2F78;}
	.st1{enable-background:new    ;}
</style>
<g>
	<g>
		<path class="st0" d="M226.4,351.6c2.1,0,5.6-0.3,9.1-0.7c4.1-0.5,6.3-0.7,8.8-1.7c2-0.8,5.2-2.4,8.5-5.9c-0.4,1.8-1.2,4.6-3.1,7.5
			c-0.8,1.1-3,4.5-7,6.7c-4.3,2.4-8.6,2.1-10.3,2.1c-44.8-0.2-67.2-0.1-69.6,0c-0.7,0-2.9,0.1-4.1-1.4c-1.1-1.3-1.3-3.6-0.3-5
			c1.2-1.7,3.9-1.6,4.9-1.6c10.4-0.1,19.4-0.1,30.9-0.1"/>
		<path class="st0" d="M191.2,270.3c8.7-0.3,13-0.4,19.5-0.2c2.5,0.1,6.4,0,14.3-0.1c9.2-0.1,13.9-0.2,15.8-0.9
			c5.3-1.9,12-6.9,14-15.1c2.2-9.4-3.3-16.8-4.1-17.9c-3.6-4.6-8.1-6.5-11.4-7.7c-6-2.3-10.5-1.9-22.2-1.9
			c-20.2,0-24.8-0.4-34.4,1.1c-4.3,0.7-8.6,1.6-13.7,3.8c-4.8,2.2-8.4,4.7-10.7,6.6c2.1-0.5,5.3-1.1,9.1-1.8
			c4.1-0.7,12.6-0.5,14.8-0.5c8.2,0,26.3,0.1,49.3-0.1c0.9,0,7,0.1,11.2,5c0.2,0.3,5.2,6.4,2.7,12.8c-1.8,4.8-4.6,6.2-8.9,7.6
			c-3.8,1.2-6.9,1.1-7.7,1.1c-7.9,0.1-33,0.2-67.1,0c-3.1,0.1-8.9,0.7-13.7,5.1c-10.8,9.9-4.2,28.6-3.8,29.6
			c5,13.5,17.8,19.4,23.1,21.8c6.9,3.2,13.2,4.1,14.5,4.3c11.9,1.7,24.7-0.7,28.1,3.1c1.5,1.7,1.5,3.5,1.5,3.5c0,0.2,0,1.8-1.2,3.1
			c-1.4,1.6-3.8,1.5-4.8,1.5c-10.5,0-21,0-31.4,0c-13.4,0.1-19.8-0.5-25.5,3.9c-5.2,4-9.2,11.1-8.8,18.8c0.6,9.6,7.9,15.5,9.1,16.4
			c6.6,5.2,11,4.1,40.9,4.1c15.8,0,17.8,0.2,25.7-0.8c12-1.4,21.6-9.5,21.6-9.5s-4.8,0.4-14.2,1.2c-6.1,0.5-7.3,0.6-19.1,0.6
			c-4.1,0-4.5,0-35.8,0c-7.1,0-10.6-0.3-13.7-2.5c-7.1-5.2-7.5-12.3-4.3-17.9c1.8-3.1,5-4.7,6.1-5.2c3.6-1.7,6.8-1.7,8.2-1.7
			c3.8,0,48.7,0.6,65.7,0.1c3.2-0.1,8.3-0.3,13.2-3.5c7.9-5.2,9.6-12.1,9.7-15.5c0.3-8.8-3.1-15.6-6.2-20.7
			c-1.4-2.4-7.8-12.5-21.7-17.8c-8-3.1-16-3.3-21.2-3.5c-10.8-0.4-16.5,0.9-19-2.1c-1.4-1.6-1.8-4.6-0.5-6.2
			C185.9,270.5,188.7,270.4,191.2,270.3z M229.5,334.5c-2.8,0-5.6,0-8.4,0c0.1-2.1,0-6.3-2.3-10.6c-0.9-1.7-2.9-5.5-7.2-7.5
			c-2.4-1.1-4.6-1.2-6-1.2c-9.1-0.2-17.1,0-18.2,0c-11.9,0.2-21.2-6.4-23-7.8c-2.5-1.8-10.8-7.9-13.4-18.2c-0.8-3-1.7-7.2,0.4-11.4
			c1.9-3.8,5.4-5.6,6.9-6.2c-0.2,2.9-0.3,7.5,1.4,12.8c2.4,7.8,7,12.5,7.9,13.4c1.1,1.1,6.2,6,14.5,8.2c3.9,1,4.4,0.8,16.5,0.7
			c13.2,0,15.5,1.3,16.9,1.9c6.4,2.9,9.8,8.2,11,10.2C230.4,325.6,229.8,332.3,229.5,334.5z M183.6,288.6c2.6,0.7,5.4,1,6.9,1.1
			c9.2,0.1,17.3,0.1,18.4,0.1c11.9-0.2,21,6.4,22.9,7.7c2.5,1.8,10.8,7.9,13.4,18.2c0.8,3,1.7,7.2-0.4,11.4
			c-1.9,3.8-5.4,5.6-6.9,6.2c0.2-2.9,0.3-7.5-1.4-12.8c-2.4-7.8-7-12.5-7.9-13.4c-1.1-1.1-6.2-6-14.5-8.2c-3.9-1-4.5-0.6-16.5-0.7
			c-13.4-0.1-15.5-1.3-16.9-2c-6.4-2.9-9.8-8.2-11-10.2c-3.9-6.9-3.3-13.8-3.1-16c2.8,0,5.7,0,8.5,0c-0.1,2.1-0.8,6.6,0.6,11
			C176.7,284.6,178.8,287.2,183.6,288.6z"/>
	</g>
	<path class="st0" d="M169,252.9c-2.1,0-5.6,0.3-9.1,0.7c-4.1,0.5-6.3,0.7-8.8,1.7c-2,0.8-5.2,2.4-8.5,5.9c0.4-1.8,1.2-4.6,3.1-7.5
		c0.8-1.1,2.9-4.6,7-6.7c4.3-2.2,8.6-2.1,10.3-2.1c44.8,0.2,67.2,0,69.6-0.1c0.7,0,2.9-0.1,4.1,1.4c1.1,1.3,1.3,3.6,0.3,5
		c-1.2,1.7-3.9,1.6-4.9,1.6c-10.4,0.1-19.4,0.1-30.9,0.1"/>
</g>
<g class="st1">
	<path d="M170.2,437.8c-3.1,0-5.9-0.4-8.3-1.3c-2.4-0.9-4.7-2.3-7-4.3c-0.5-0.3-0.8-0.8-1.1-1.3c-0.2-0.5-0.4-1-0.4-1.5
		c0-0.8,0.3-1.6,0.9-2.2c0.6-0.6,1.4-1,2.3-1c0.7,0,1.3,0.2,1.9,0.7c1.6,1.5,3.4,2.7,5.2,3.4c1.8,0.8,3.9,1.2,6.3,1.2
		c1.7,0,3.3-0.3,4.8-0.8c1.5-0.6,2.6-1.3,3.5-2.3c0.9-1,1.3-2.1,1.3-3.3c0-1.6-0.4-2.8-1.3-3.9c-0.9-1-2.2-1.9-3.8-2.5
		c-1.7-0.7-3.7-1.2-6-1.7c-2.2-0.4-4.1-0.9-5.8-1.6c-1.7-0.7-3.2-1.6-4.4-2.6c-1.2-1.1-2.1-2.3-2.8-3.8c-0.6-1.5-1-3.2-1-5.1
		c0-2.6,0.7-4.9,2.1-6.8c1.4-1.9,3.3-3.4,5.7-4.4c2.4-1,5.1-1.6,8.1-1.6c2.7,0,5.3,0.4,7.7,1.3c2.4,0.8,4.3,2,5.8,3.4
		c1,0.9,1.6,1.9,1.6,2.9c0,0.8-0.3,1.5-0.9,2.2c-0.6,0.7-1.4,1-2.2,1c-0.6,0-1.1-0.2-1.6-0.5c-0.7-0.7-1.6-1.4-2.8-2
		s-2.4-1.1-3.7-1.5c-1.3-0.4-2.6-0.6-3.8-0.6c-2,0-3.6,0.3-5,0.8c-1.4,0.5-2.4,1.3-3.2,2.2c-0.7,0.9-1.1,2-1.1,3.3
		c0,1.5,0.4,2.7,1.3,3.6c0.8,1,2,1.7,3.5,2.3c1.5,0.6,3.2,1.1,5.2,1.6c2.4,0.5,4.5,1.1,6.4,1.8c1.9,0.6,3.5,1.5,4.8,2.5
		c1.3,1,2.3,2.3,3,3.8c0.7,1.5,1,3.4,1,5.7c0,2.6-0.7,4.9-2.2,6.8c-1.5,2-3.4,3.5-5.8,4.6C175.9,437.3,173.2,437.8,170.2,437.8z"/>
	<path d="M209.5,437.8c-3.6,0-6.7-0.7-9.4-2.2c-2.6-1.5-4.7-3.6-6.1-6.2c-1.5-2.6-2.2-5.6-2.2-9c0-3.8,0.8-7.1,2.3-9.8
		c1.5-2.7,3.5-4.8,6-6.2c2.5-1.5,5.1-2.2,7.9-2.2c2.1,0,4.1,0.4,6,1.3c1.9,0.8,3.6,2,5.1,3.5s2.7,3.2,3.5,5.3c0.9,2,1.3,4.2,1.4,6.6
		c0,0.9-0.4,1.6-1,2.1s-1.4,0.8-2.3,0.8h-25.3l-1.6-5.5h24.4l-1.2,1.2v-1.6c-0.1-1.5-0.6-2.8-1.5-4c-0.9-1.1-2-2-3.4-2.7
		c-1.3-0.6-2.8-0.9-4.2-0.9c-1.3,0-2.5,0.2-3.7,0.6c-1.2,0.4-2.3,1.1-3.2,2c-0.9,0.9-1.7,2.1-2.2,3.6c-0.5,1.5-0.8,3.3-0.8,5.6
		c0,2.4,0.5,4.5,1.5,6.2c1,1.8,2.3,3.2,4,4.1c1.7,1,3.6,1.5,5.6,1.5c1.6,0,2.9-0.2,4-0.5c1-0.3,1.9-0.7,2.6-1.2
		c0.7-0.5,1.3-0.9,1.8-1.4c0.6-0.4,1.3-0.6,1.9-0.6c0.8,0,1.4,0.3,2,0.8s0.8,1.2,0.8,1.9c0,1-0.5,1.8-1.4,2.6
		c-1.2,1.1-2.8,2.1-4.8,3C213.9,437.4,211.8,437.8,209.5,437.8z"/>
	<path d="M246.5,402.2c2.3,0,4.4,0.2,6.2,0.7c1.8,0.5,3.2,1.2,4.3,2.1c1,0.9,1.5,1.9,1.5,3.1c0,0.7-0.2,1.4-0.7,2
		c-0.4,0.6-1.1,0.9-1.9,0.9c-0.6,0-1.1-0.1-1.5-0.3c-0.4-0.2-0.8-0.5-1.1-0.8c-0.3-0.3-0.8-0.6-1.3-0.9c-0.5-0.3-1.2-0.5-2.1-0.7
		c-0.9-0.2-1.8-0.3-2.5-0.3c-2.3,0-4.3,0.5-5.9,1.6c-1.7,1-3,2.4-3.9,4.2c-0.9,1.8-1.4,3.8-1.4,6c0,2.3,0.5,4.3,1.4,6
		c0.9,1.8,2.2,3.2,3.8,4.2s3.5,1.6,5.7,1.6c1.3,0,2.4-0.1,3.2-0.3c0.8-0.2,1.5-0.4,2.1-0.7c0.6-0.4,1.2-0.8,1.7-1.2
		c0.5-0.4,1.1-0.6,1.9-0.6c1,0,1.7,0.3,2.2,0.9c0.5,0.6,0.7,1.3,0.7,2.2c0,1-0.6,1.9-1.7,2.8c-1.1,0.9-2.7,1.6-4.6,2.2
		c-1.9,0.6-4,0.8-6.3,0.8c-3.4,0-6.3-0.8-8.8-2.3c-2.5-1.6-4.4-3.7-5.8-6.4c-1.4-2.7-2-5.7-2-9.1c0-3.4,0.7-6.5,2.1-9.1
		c1.4-2.7,3.4-4.8,6-6.3C240.3,403,243.3,402.2,246.5,402.2z"/>
	<path d="M290.6,403c0.9,0,1.7,0.3,2.3,0.9c0.6,0.6,0.9,1.4,0.9,2.4v17.1c0,4.5-1.3,8-3.8,10.6c-2.5,2.5-6.1,3.8-10.7,3.8
		c-4.6,0-8.1-1.3-10.6-3.8c-2.5-2.5-3.7-6.1-3.7-10.6v-17.1c0-1,0.3-1.7,0.9-2.4c0.6-0.6,1.4-0.9,2.3-0.9c0.9,0,1.7,0.3,2.3,0.9
		c0.6,0.6,0.9,1.4,0.9,2.4v17.1c0,2.8,0.7,4.9,2,6.3c1.3,1.4,3.3,2.1,5.8,2.1c2.6,0,4.6-0.7,5.9-2.1c1.3-1.4,2-3.5,2-6.3v-17.1
		c0-1,0.3-1.7,0.9-2.4C288.9,403.3,289.7,403,290.6,403z"/>
	<path d="M306.2,437.2c-1,0-1.7-0.3-2.3-0.9c-0.6-0.6-0.9-1.4-0.9-2.4v-27.6c0-1,0.3-1.7,0.9-2.4c0.6-0.6,1.4-0.9,2.3-0.9
		c0.9,0,1.7,0.3,2.3,0.9c0.6,0.6,0.9,1.4,0.9,2.4v7.3l-0.6-2.8c0.3-1.2,0.9-2.3,1.6-3.4c0.7-1,1.6-2,2.6-2.7c1-0.8,2.1-1.4,3.3-1.8
		c1.2-0.4,2.5-0.6,3.9-0.6c1.1,0,2.1,0.3,2.9,0.9c0.8,0.6,1.2,1.4,1.2,2.3c0,1.2-0.3,2-0.9,2.6c-0.6,0.5-1.3,0.8-2,0.8
		c-0.6,0-1.3-0.1-1.9-0.4c-0.6-0.3-1.3-0.4-2.1-0.4c-0.9,0-1.8,0.2-2.8,0.7c-1,0.5-1.8,1.2-2.6,2.1c-0.8,0.9-1.4,2-1.9,3.3
		s-0.7,2.7-0.7,4.2v15.6c0,1-0.3,1.7-0.9,2.4C307.8,436.9,307.1,437.2,306.2,437.2z"/>
	<path d="M332.9,398.4c-1.3,0-2.2-0.2-2.7-0.7c-0.6-0.5-0.8-1.2-0.8-2.3v-1c0-1.1,0.3-1.8,0.9-2.3c0.6-0.4,1.5-0.7,2.7-0.7
		c1.3,0,2.2,0.2,2.8,0.7c0.6,0.5,0.8,1.2,0.8,2.2v1c0,1.1-0.3,1.9-0.9,2.3C335.1,398.2,334.2,398.4,332.9,398.4z M336.2,433.9
		c0,1-0.3,1.7-0.9,2.4c-0.6,0.6-1.4,0.9-2.3,0.9c-0.9,0-1.7-0.3-2.3-0.9c-0.6-0.6-0.9-1.4-0.9-2.4V406c0-1,0.3-1.7,0.9-2.4
		c0.6-0.6,1.4-0.9,2.3-0.9c1,0,1.7,0.3,2.3,0.9c0.6,0.6,0.9,1.4,0.9,2.4V433.9z"/>
	<path d="M344.5,403.4h15.3c0.9,0,1.6,0.3,2.2,0.9s0.9,1.3,0.9,2.2c0,0.8-0.3,1.5-0.9,2.1c-0.6,0.6-1.3,0.8-2.2,0.8h-15.3
		c-0.9,0-1.6-0.3-2.2-0.9s-0.9-1.3-0.9-2.1c0-0.9,0.3-1.6,0.9-2.1C342.9,403.7,343.6,403.4,344.5,403.4z M351.3,394.9
		c1,0,1.7,0.3,2.3,0.9c0.6,0.6,0.9,1.4,0.9,2.4v30.2c0,0.8,0.1,1.4,0.4,1.9c0.3,0.5,0.6,0.8,1.1,1c0.5,0.2,0.9,0.3,1.4,0.3
		c0.5,0,0.9-0.1,1.3-0.3c0.4-0.2,0.8-0.3,1.3-0.3s1,0.2,1.4,0.7c0.4,0.5,0.6,1.1,0.6,2c0,1-0.6,1.9-1.7,2.5c-1.1,0.6-2.3,1-3.6,1
		c-0.7,0-1.6-0.1-2.6-0.2c-1-0.1-2-0.5-2.9-1c-0.9-0.5-1.7-1.4-2.3-2.5c-0.6-1.1-0.9-2.8-0.9-4.8v-30.4c0-1,0.3-1.7,0.9-2.4
		C349.6,395.2,350.4,394.9,351.3,394.9z"/>
	<path d="M395.5,402.7c1,0,1.7,0.3,2.3,0.9c0.6,0.6,0.9,1.4,0.9,2.4v28c0,3.8-0.7,6.9-2.2,9.3c-1.5,2.4-3.4,4.1-5.9,5.2
		c-2.4,1.1-5.2,1.7-8.3,1.7c-1.6,0-3.1-0.1-4.7-0.4c-1.6-0.3-2.8-0.7-3.8-1.2c-1-0.5-1.8-1.1-2.2-1.8c-0.4-0.7-0.5-1.5-0.2-2.3
		c0.3-1,0.8-1.7,1.6-2.1c0.7-0.4,1.5-0.4,2.3-0.1c0.7,0.3,1.7,0.7,2.9,1.2c1.2,0.5,2.6,0.7,4.2,0.7c2.1,0,3.9-0.3,5.4-1
		c1.5-0.7,2.6-1.8,3.3-3.2c0.8-1.5,1.1-3.4,1.1-5.7v-4.5l1,1.6c-0.7,1.4-1.6,2.6-2.7,3.6c-1.1,1-2.5,1.7-4,2.2
		c-1.5,0.5-3.2,0.8-5.1,0.8c-2.4,0-4.4-0.5-6.1-1.6c-1.7-1.1-3-2.5-3.9-4.4s-1.4-4-1.4-6.5V406c0-1,0.3-1.7,0.9-2.4
		c0.6-0.6,1.4-0.9,2.3-0.9c0.9,0,1.7,0.3,2.3,0.9c0.6,0.6,0.9,1.4,0.9,2.4v17.5c0,2.9,0.6,5,1.9,6.3c1.3,1.3,3.1,2,5.6,2
		c1.6,0,3.1-0.3,4.3-1c1.2-0.7,2.2-1.7,2.9-2.9c0.7-1.2,1-2.7,1-4.3V406c0-1,0.3-1.7,0.9-2.4C393.8,403,394.6,402.7,395.5,402.7z"/>
</g>
<g class="st1">
	<path d="M454.9,437.8c-3.1,0-5.9-0.4-8.3-1.3c-2.4-0.9-4.7-2.3-7-4.3c-0.5-0.3-0.8-0.8-1.1-1.3c-0.2-0.5-0.4-1-0.4-1.5
		c0-0.8,0.3-1.6,0.9-2.2c0.6-0.6,1.4-1,2.3-1c0.7,0,1.3,0.2,2,0.7c1.6,1.5,3.4,2.7,5.2,3.4c1.8,0.8,3.9,1.2,6.3,1.2
		c1.7,0,3.3-0.3,4.8-0.8c1.5-0.6,2.6-1.3,3.5-2.3c0.9-1,1.3-2.1,1.3-3.3c0-1.6-0.4-2.8-1.3-3.9c-0.9-1-2.2-1.9-3.8-2.5
		c-1.7-0.7-3.7-1.2-6-1.7c-2.2-0.4-4.1-0.9-5.8-1.6c-1.7-0.7-3.2-1.6-4.4-2.6c-1.2-1.1-2.1-2.3-2.8-3.8c-0.7-1.5-1-3.2-1-5.1
		c0-2.6,0.7-4.9,2.1-6.8c1.4-1.9,3.3-3.4,5.7-4.4c2.4-1,5.1-1.6,8.1-1.6c2.7,0,5.3,0.4,7.7,1.3c2.4,0.8,4.3,2,5.8,3.4
		c1,0.9,1.6,1.9,1.6,2.9c0,0.8-0.3,1.5-0.9,2.2c-0.6,0.7-1.4,1-2.2,1c-0.6,0-1.1-0.2-1.6-0.5c-0.7-0.7-1.6-1.4-2.8-2
		s-2.4-1.1-3.7-1.5c-1.3-0.4-2.6-0.6-3.8-0.6c-2,0-3.6,0.3-5,0.8c-1.4,0.5-2.4,1.3-3.2,2.2c-0.7,0.9-1.1,2-1.1,3.3
		c0,1.5,0.4,2.7,1.3,3.6c0.8,1,2,1.7,3.5,2.3c1.5,0.6,3.2,1.1,5.2,1.6c2.4,0.5,4.5,1.1,6.4,1.8c1.9,0.6,3.5,1.5,4.8,2.5
		c1.3,1,2.3,2.3,3,3.8c0.7,1.5,1,3.4,1,5.7c0,2.6-0.7,4.9-2.2,6.8c-1.5,2-3.4,3.5-5.8,4.6C460.5,437.3,457.8,437.8,454.9,437.8z"/>
	<path d="M503.6,402.7c1,0,1.7,0.3,2.3,0.9c0.6,0.6,0.9,1.4,0.9,2.4v28c0,3.8-0.7,6.9-2.2,9.3c-1.5,2.4-3.4,4.1-5.8,5.2
		c-2.4,1.1-5.2,1.7-8.3,1.7c-1.6,0-3.1-0.1-4.7-0.4c-1.6-0.3-2.8-0.7-3.8-1.2c-1-0.5-1.8-1.1-2.2-1.8c-0.4-0.7-0.5-1.5-0.2-2.3
		c0.3-1,0.8-1.7,1.6-2.1c0.7-0.4,1.5-0.4,2.3-0.1c0.7,0.3,1.7,0.7,2.9,1.2c1.2,0.5,2.6,0.7,4.2,0.7c2.1,0,3.9-0.3,5.4-1
		c1.5-0.7,2.6-1.8,3.3-3.2c0.8-1.5,1.1-3.4,1.1-5.7v-4.5l1,1.6c-0.7,1.4-1.6,2.6-2.7,3.6c-1.1,1-2.5,1.7-4,2.2
		c-1.5,0.5-3.2,0.8-5.1,0.8c-2.4,0-4.4-0.5-6.1-1.6c-1.7-1.1-3-2.5-3.9-4.4s-1.4-4-1.4-6.5V406c0-1,0.3-1.7,0.9-2.4
		c0.6-0.6,1.4-0.9,2.3-0.9c0.9,0,1.7,0.3,2.3,0.9c0.6,0.6,0.9,1.4,0.9,2.4v17.5c0,2.9,0.6,5,1.9,6.3c1.3,1.3,3.1,2,5.6,2
		c1.6,0,3.1-0.3,4.3-1c1.2-0.7,2.2-1.7,2.9-2.9c0.7-1.2,1-2.7,1-4.3V406c0-1,0.3-1.7,0.9-2.4C502,403,502.7,402.7,503.6,402.7z"/>
	<path d="M513.3,431.8c-0.4-0.6-0.6-1.3-0.5-2.1c0-0.8,0.5-1.5,1.4-2c0.6-0.4,1.2-0.6,1.9-0.5c0.7,0.1,1.3,0.4,1.9,1
		c1.2,1.3,2.6,2.4,4.1,3.2c1.5,0.8,3.3,1.2,5.4,1.2c0.9,0,1.8-0.2,2.7-0.4s1.7-0.7,2.3-1.3c0.7-0.6,1-1.5,1-2.8c0-1.1-0.3-2-1-2.6
		c-0.7-0.6-1.6-1.2-2.7-1.6c-1.1-0.4-2.3-0.8-3.6-1.1c-1.4-0.4-2.8-0.8-4.2-1.3c-1.4-0.5-2.7-1.1-3.8-1.9c-1.1-0.8-2-1.7-2.8-3
		c-0.7-1.2-1.1-2.7-1.1-4.5c0-2,0.6-3.8,1.7-5.3c1.1-1.5,2.6-2.6,4.5-3.4c1.8-0.8,3.8-1.2,6-1.2c1.3,0,2.6,0.2,4,0.5s2.7,0.8,4,1.5
		c1.3,0.7,2.4,1.6,3.4,2.7c0.4,0.6,0.7,1.2,0.7,2c0.1,0.8-0.3,1.5-1.1,2.1c-0.5,0.4-1.1,0.6-1.9,0.6c-0.7,0-1.3-0.3-1.8-0.7
		c-0.8-1-1.9-1.9-3.2-2.4s-2.8-0.9-4.4-0.9c-0.8,0-1.7,0.1-2.6,0.4c-0.9,0.2-1.6,0.7-2.2,1.3c-0.6,0.6-0.9,1.5-0.9,2.7
		c0,1.1,0.4,2,1.1,2.6c0.7,0.6,1.7,1.2,2.8,1.6c1.2,0.4,2.4,0.8,3.8,1.2c1.3,0.3,2.7,0.8,4,1.2c1.3,0.5,2.5,1.1,3.6,1.9
		c1.1,0.8,1.9,1.7,2.6,2.9c0.7,1.2,1,2.7,1,4.5c0,2.1-0.6,3.9-1.9,5.4c-1.2,1.5-2.8,2.6-4.7,3.4c-1.9,0.8-3.9,1.2-5.9,1.2
		c-2.5,0-4.9-0.4-7.4-1.3C517.1,435.6,515,434.1,513.3,431.8z"/>
	<path d="M546,403.4h15.3c0.9,0,1.6,0.3,2.2,0.9s0.9,1.3,0.9,2.2c0,0.8-0.3,1.5-0.9,2.1c-0.6,0.6-1.3,0.8-2.2,0.8H546
		c-0.9,0-1.6-0.3-2.2-0.9s-0.9-1.3-0.9-2.1c0-0.9,0.3-1.6,0.9-2.1C544.4,403.7,545.1,403.4,546,403.4z M552.8,394.9
		c1,0,1.7,0.3,2.3,0.9c0.6,0.6,0.9,1.4,0.9,2.4v30.2c0,0.8,0.1,1.4,0.4,1.9s0.6,0.8,1.1,1c0.5,0.2,0.9,0.3,1.4,0.3s0.9-0.1,1.3-0.3
		c0.4-0.2,0.8-0.3,1.3-0.3c0.5,0,1,0.2,1.4,0.7c0.4,0.5,0.7,1.1,0.7,2c0,1-0.6,1.9-1.7,2.5c-1.1,0.6-2.3,1-3.6,1
		c-0.7,0-1.6-0.1-2.6-0.2s-2-0.5-2.9-1c-0.9-0.5-1.7-1.4-2.3-2.5c-0.6-1.1-0.9-2.8-0.9-4.8v-30.4c0-1,0.3-1.7,0.9-2.4
		C551.1,395.2,551.9,394.9,552.8,394.9z"/>
	<path d="M587.1,437.8c-3.6,0-6.7-0.7-9.4-2.2c-2.6-1.5-4.7-3.6-6.1-6.2c-1.5-2.6-2.2-5.6-2.2-9c0-3.8,0.8-7.1,2.3-9.8
		c1.5-2.7,3.5-4.8,6-6.2c2.5-1.5,5.1-2.2,7.9-2.2c2.1,0,4.1,0.4,6,1.3c1.9,0.8,3.6,2,5.1,3.5s2.7,3.2,3.5,5.3c0.9,2,1.3,4.2,1.4,6.6
		c0,0.9-0.4,1.6-1,2.1c-0.6,0.6-1.4,0.8-2.3,0.8h-25.3l-1.6-5.5h24.4l-1.2,1.2v-1.6c-0.1-1.5-0.6-2.8-1.5-4c-0.9-1.1-2-2-3.4-2.7
		c-1.3-0.6-2.8-0.9-4.2-0.9c-1.3,0-2.5,0.2-3.7,0.6c-1.2,0.4-2.3,1.1-3.2,2c-0.9,0.9-1.7,2.1-2.2,3.6c-0.5,1.5-0.8,3.3-0.8,5.6
		c0,2.4,0.5,4.5,1.5,6.2c1,1.8,2.3,3.2,4,4.1c1.7,1,3.6,1.5,5.6,1.5c1.6,0,2.9-0.2,4-0.5s1.9-0.7,2.6-1.2s1.3-0.9,1.8-1.4
		c0.7-0.4,1.3-0.6,2-0.6c0.8,0,1.4,0.3,2,0.8c0.5,0.5,0.8,1.2,0.8,1.9c0,1-0.5,1.8-1.4,2.6c-1.2,1.1-2.8,2.1-4.8,3
		C591.5,437.4,589.4,437.8,587.1,437.8z"/>
	<path d="M626.2,402.4c3.2,0,5.7,0.8,7.4,2.4c1.7,1.6,2.9,3.7,3.4,6.4l-1-0.3l0.5-1c0.6-1.1,1.4-2.3,2.6-3.4
		c1.1-1.1,2.5-2.1,4.1-2.9c1.6-0.8,3.3-1.1,5.1-1.1c3,0,5.3,0.6,7,1.9c1.6,1.3,2.8,3,3.4,5.1c0.7,2.1,1,4.5,1,7.2v17.2
		c0,1-0.3,1.7-0.9,2.4c-0.6,0.6-1.4,0.9-2.3,0.9c-0.9,0-1.7-0.3-2.3-0.9c-0.6-0.6-0.9-1.4-0.9-2.4v-17.2c0-1.5-0.2-2.9-0.6-4.2
		s-1.1-2.3-2.1-3c-1-0.8-2.4-1.1-4.2-1.1c-1.7,0-3.2,0.4-4.5,1.1c-1.3,0.8-2.4,1.8-3.1,3c-0.7,1.3-1.1,2.6-1.1,4.2v17.2
		c0,1-0.3,1.7-0.9,2.4c-0.6,0.6-1.4,0.9-2.3,0.9c-1,0-1.7-0.3-2.3-0.9c-0.6-0.6-0.9-1.4-0.9-2.4v-17.2c0-1.5-0.2-2.9-0.6-4.2
		c-0.4-1.3-1.1-2.3-2.1-3c-1-0.7-2.4-1.1-4.2-1.1c-1.7,0-3.2,0.4-4.5,1.1c-1.3,0.7-2.3,1.7-3,3c-0.7,1.3-1.1,2.6-1.1,4.2v17.2
		c0,1-0.3,1.7-0.9,2.4c-0.6,0.6-1.4,0.9-2.3,0.9c-1,0-1.7-0.3-2.3-0.9c-0.6-0.6-0.9-1.4-0.9-2.4v-27.6c0-1,0.3-1.7,0.9-2.4
		c0.6-0.6,1.4-0.9,2.3-0.9c0.9,0,1.7,0.3,2.3,0.9s0.9,1.4,0.9,2.4v3.8l-1.2,0.7c0.3-1,0.8-1.9,1.5-2.9c0.7-1,1.6-1.9,2.6-2.7
		c1.1-0.8,2.2-1.5,3.5-2C623.2,402.7,624.7,402.4,626.2,402.4z"/>
	<path d="M666.7,431.8c-0.4-0.6-0.6-1.3-0.5-2.1c0-0.8,0.5-1.5,1.4-2c0.6-0.4,1.2-0.6,1.9-0.5c0.7,0.1,1.3,0.4,1.9,1
		c1.2,1.3,2.6,2.4,4.1,3.2c1.5,0.8,3.3,1.2,5.4,1.2c0.9,0,1.8-0.2,2.7-0.4s1.7-0.7,2.3-1.3c0.7-0.6,1-1.5,1-2.8c0-1.1-0.3-2-1-2.6
		c-0.7-0.6-1.6-1.2-2.7-1.6c-1.1-0.4-2.3-0.8-3.6-1.1c-1.4-0.4-2.8-0.8-4.2-1.3c-1.4-0.5-2.7-1.1-3.8-1.9c-1.1-0.8-2-1.7-2.8-3
		c-0.7-1.2-1.1-2.7-1.1-4.5c0-2,0.6-3.8,1.7-5.3c1.1-1.5,2.6-2.6,4.5-3.4c1.8-0.8,3.8-1.2,6-1.2c1.3,0,2.6,0.2,4,0.5s2.7,0.8,4,1.5
		c1.3,0.7,2.4,1.6,3.4,2.7c0.4,0.6,0.7,1.2,0.7,2c0.1,0.8-0.3,1.5-1.1,2.1c-0.5,0.4-1.1,0.6-1.9,0.6c-0.7,0-1.3-0.3-1.8-0.7
		c-0.8-1-1.9-1.9-3.2-2.4s-2.8-0.9-4.4-0.9c-0.8,0-1.7,0.1-2.6,0.4c-0.9,0.2-1.6,0.7-2.2,1.3c-0.6,0.6-0.9,1.5-0.9,2.7
		c0,1.1,0.4,2,1.1,2.6c0.7,0.6,1.7,1.2,2.8,1.6c1.2,0.4,2.4,0.8,3.8,1.2c1.3,0.3,2.7,0.8,4,1.2c1.3,0.5,2.5,1.1,3.6,1.9
		c1.1,0.8,1.9,1.7,2.6,2.9c0.7,1.2,1,2.7,1,4.5c0,2.1-0.6,3.9-1.9,5.4c-1.2,1.5-2.8,2.6-4.7,3.4c-1.9,0.8-3.9,1.2-5.9,1.2
		c-2.5,0-4.9-0.4-7.4-1.3C670.5,435.6,668.4,434.1,666.7,431.8z"/>
</g>
<g class="st1">
	<path class="st0" d="M327.7,268.5c9.4,0,16.7,2,21.8,6c5.2,4,8.8,9.4,10.9,16.2c2.1,6.8,3.2,14.3,3.2,22.5v54.1c0,3-1,5.5-3,7.5
		c-2,2-4.4,3-7.2,3c-3,0-5.4-1-7.3-3c-1.9-2-2.9-4.5-2.9-7.5v-54.1c0-4.8-0.6-9.1-1.9-13.1c-1.3-3.9-3.5-7.1-6.7-9.4
		c-3.2-2.3-7.7-3.5-13.4-3.5c-5.3,0-10,1.2-14.2,3.5c-4.2,2.3-7.3,5.4-9.6,9.4c-2.2,3.9-3.4,8.3-3.4,13.1v54.1c0,3-1,5.5-3,7.5
		c-2,2-4.4,3-7.2,3c-3,0-5.4-1-7.3-3c-1.9-2-2.9-4.5-2.9-7.5V237.1c0-3,1-5.5,2.9-7.5c1.9-2,4.4-3,7.3-3c2.9,0,5.3,1,7.2,3
		c2,2,3,4.5,3,7.5v55.7l-3.7,2c1-3,2.6-6.1,4.8-9.2c2.2-3.1,5-6,8.4-8.6c3.3-2.6,7-4.7,11.1-6.2C318.7,269.3,323,268.5,327.7,268.5z
		"/>
	<path class="st0" d="M400.7,256.1c-3.9,0-6.8-0.7-8.6-2.1c-1.8-1.4-2.7-3.8-2.7-7.2v-3.3c0-3.4,1-5.8,2.9-7.1c1.9-1.4,4.8-2,8.6-2
		c4.1,0,7,0.7,8.8,2.1c1.8,1.4,2.7,3.8,2.7,7v3.3c0,3.5-0.9,6-2.8,7.3C407.8,255.4,404.8,256.1,400.7,256.1z M411.2,367.3
		c0,3-1,5.5-2.9,7.5c-1.9,2-4.4,3-7.3,3c-2.9,0-5.3-1-7.2-3c-2-2-3-4.5-3-7.5V280c0-3,1-5.5,3-7.5c2-2,4.4-3,7.2-3c3,0,5.4,1,7.3,3
		c1.9,2,2.9,4.5,2.9,7.5V367.3z"/>
	<path class="st0" d="M488.7,379.8c-11.3,0-21.1-2.3-29.4-7c-8.3-4.7-14.7-11.2-19.3-19.4c-4.6-8.2-6.8-17.7-6.8-28.3
		c0-12,2.4-22.2,7.2-30.7c4.8-8.5,11.1-15,18.9-19.6c7.8-4.6,16-6.8,24.7-6.8c6.7,0,13,1.3,19,4c6,2.7,11.3,6.3,16,11
		c4.7,4.7,8.4,10.2,11.1,16.5c2.7,6.3,4.2,13.2,4.3,20.7c-0.1,2.7-1.2,5-3.3,6.7c-2,1.8-4.4,2.7-7.1,2.7h-79.4l-4.9-17.4h76.8
		l-3.9,3.7v-5.1c-0.3-4.8-1.8-8.9-4.7-12.6c-2.9-3.6-6.4-6.4-10.6-8.4c-4.2-2-8.6-3-13.3-3c-4.1,0-8,0.6-11.7,1.9
		c-3.7,1.3-7.1,3.4-10,6.2c-2.9,2.9-5.2,6.6-6.9,11.3c-1.7,4.7-2.6,10.5-2.6,17.5c0,7.5,1.6,14,4.7,19.6c3.1,5.6,7.3,9.9,12.7,13
		s11.2,4.6,17.6,4.6c5,0,9.2-0.5,12.5-1.5c3.3-1,6-2.3,8.2-3.8c2.2-1.5,4.1-2.9,5.7-4.3c2-1.2,4.1-1.8,6.1-1.8
		c2.5,0,4.5,0.9,6.1,2.6c1.6,1.7,2.4,3.7,2.4,6c0,3-1.5,5.7-4.5,8.2c-3.7,3.5-8.7,6.7-15.2,9.4C502.6,378.4,495.8,379.8,488.7,379.8
		z"/>
	<path class="st0" d="M579.6,367.3c0,3-1,5.5-3,7.5c-2,2-4.4,3-7.2,3c-2.9,0-5.3-1-7.2-3c-2-2-3-4.5-3-7.5V237.1c0-3,1-5.5,3.1-7.5
		c2-2,4.5-3,7.3-3c3,0,5.4,1,7.2,3c1.8,2,2.8,4.5,2.8,7.5V367.3z"/>
	<path class="st0" d="M696,226.7c3,0,5.4,1,7.3,2.9c1.9,1.9,2.9,4.4,2.9,7.6v130.3c0,3-1,5.5-2.9,7.5c-1.9,2-4.4,3-7.3,3
		c-2.9,0-5.3-1-7.2-3c-2-2-3-4.5-3-7.5v-14.7l4.3,0.2c0,2.5-1,5.2-3,8.3c-2,3.1-4.7,6-8.1,8.9c-3.4,2.9-7.4,5.2-12,7
		c-4.6,1.8-9.6,2.8-14.9,2.8c-9.4,0-17.8-2.4-25.3-7.2c-7.5-4.8-13.4-11.4-17.8-19.8c-4.4-8.4-6.5-18-6.5-28.9
		c0-10.9,2.2-20.5,6.5-28.9c4.4-8.4,10.2-15,17.7-19.8c7.4-4.8,15.7-7.2,24.8-7.2c5.7,0,11.1,1,16,2.9c5,1.9,9.3,4.4,13,7.3
		c3.7,3,6.5,6.2,8.6,9.5c2,3.3,3.1,6.5,3.1,9.5l-6.3,0.6v-60.6c0-3,1-5.5,3-7.5C690.7,227.7,693.1,226.7,696,226.7z M654.3,361
		c6.5,0,12.2-1.6,17-4.9c4.8-3.3,8.6-7.7,11.3-13.3c2.7-5.6,4.1-11.9,4.1-19c0-7.1-1.4-13.4-4.1-19c-2.7-5.6-6.5-10-11.4-13.3
		c-4.9-3.3-10.5-4.9-16.9-4.9c-6.3,0-11.8,1.6-16.6,4.9c-4.8,3.3-8.6,7.7-11.4,13.3c-2.8,5.6-4.2,11.9-4.2,19c0,7.1,1.4,13.4,4.2,19
		c2.8,5.6,6.6,10,11.4,13.3C642.5,359.4,648,361,654.3,361z"/>
</g>
</svg>
